<svg classname="aboutSvg"  xmlns="http://www.w3.org/2000/svg" xmlns:xlink="http://www.w3.org/1999/xlink" viewBox="0,0,256,256" width="50px" height="50px"><g  fill-rule="nonzero" stroke="none" stroke-width="1" stroke-linecap="butt" stroke-linejoin="miter" stroke-miterlimit="10" stroke-dasharray="" stroke-dashoffset="0" font-family="none" font-weight="none" font-size="none" text-anchor="none" style="mix-blend-mode: normal"><g transform="scale(3.76471,3.76471)"><path d="M8.29883,2c-3.73999,0 -6.77148,3.03955 -6.77148,6.76953v50.46094c0,3.72998 3.03149,6.76953 6.77148,6.76953h39.61914c3.72998,0 6.75977,-3.03955 6.75977,-6.76953v-4.9707l3.49023,6.06055c0.64704,1.12728 2.29338,0.98079 2.76953,-0.23047l0.80078,-2.13086l2.24023,0.36133c1.22945,0.25026 2.25826,-1.12233 1.58984,-2.28125l-2.93945,-5.08984c0.61999,-0.41016 1.0293,-1.11914 1.0293,-1.94922v-1.89062l1.65039,-0.94922l0.00977,-0.00977c1.08997,-0.63965 1.46924,-2.021 0.86914,-3.12109c-0.0199,-0.03955 -0.04028,-0.0791 -0.07031,-0.10937l-0.9082,-1.58008l0.97852,-1.67969c0.6001,-1.12012 0.2113,-2.50049 -0.88867,-3.13086l-1.64062,-0.94922v-1.89062c0,-1.2998 -1.02039,-2.33008 -2.32031,-2.33008h-1.89062l-0.94922,-1.62891c-0.63,-1.1001 -2.01978,-1.48926 -3.17969,-0.85937l-0.64062,0.36914v-20.4707c0,-3.72998 -3.02979,-6.76953 -6.75977,-6.76953zM8.29883,4h39.61914c2.63001,0 4.75977,2.13965 4.75977,4.76953v20.46094l-0.67969,-0.39062c-1.10999,-0.59033 -2.48071,-0.19922 -3.14062,0.89063l-0.93945,1.62891h-1.89062c-1.28003,0 -2.33008,1.05029 -2.33008,2.33008v1.89063l-1.62891,0.93945c-1.11011,0.64014 -1.49927,2.02978 -0.85937,3.17969l0.94922,1.64063l-0.98047,1.68945c-0.59998,1.1001 -0.20947,2.48096 0.89063,3.14063l1.62891,0.93945v1.89063c0,0.81006 0.42078,1.5293 1.05078,1.93945l-2.94922,5.10156c-0.30005,0.51025 -0.28149,1.16992 0.05859,1.66016c0.34985,0.47998 0.95154,0.729 1.52148,0.62891l2.23828,-0.36914l0.82031,2.13867c0.42914,1.15834 2.08958,1.38831 2.75977,0.2207l3.48047,-6.04102v4.95117c0,2.62988 -2.12976,4.76953 -4.75977,4.76953h-39.61914c-2.63,0 -4.77148,-2.13965 -4.77148,-4.76953v-50.46094c0,-2.62988 2.14148,-4.76953 4.77148,-4.76953zM19.67383,8.35352c-0.12563,0.00043 -0.2525,0.02148 -0.375,0.06641l-1.69141,0.61914c-0.5,0.18994 -0.80896,0.71045 -0.70898,1.2207l0.12891,0.80078c-0.59998,0.43994 -1.14868,0.93896 -1.63867,1.5293l-0.78125,-0.17969c-0.51001,-0.13037 -1.03979,0.11914 -1.25977,0.59961l-0.75,1.64063c-0.22009,0.47021 -0.07861,1.04932 0.36133,1.35937l0.66992,0.48047c-0.14001,0.75977 -0.16016,1.50098 -0.08008,2.2207l-0.70117,0.41992c-0.46008,0.29004 -0.63904,0.82813 -0.45898,1.32813l0.62891,1.70117c0.18994,0.5 0.70068,0.78955 1.2207,0.69922l0.80078,-0.12891c0.42993,0.61035 0.9292,1.14893 1.5293,1.62891l-0.20117,0.79102c-0.12,0.5 0.13135,1.03955 0.61133,1.25977l1.63867,0.75c0.47009,0.21973 1.04114,0.08057 1.37109,-0.34961l0.48047,-0.68164c0.71997,0.14014 1.48877,0.16016 2.21875,0.08008l0.41992,0.71094c0.28992,0.43994 0.83008,0.62988 1.33008,0.43945l1.69141,-0.62891c0.5,-0.17969 0.79895,-0.69092 0.70898,-1.21094l-0.12891,-0.82031c0.6001,-0.42041 1.14917,-0.93018 1.61914,-1.5l0.80078,0.17969c0.52002,0.13037 1.04004,-0.12939 1.25,-0.60937l0.75,-1.62891c0.2301,-0.47998 0.08838,-1.05078 -0.35156,-1.36133l-0.66016,-0.49023c0.13,-0.73975 0.15051,-1.48828 0.06055,-2.22852l0.70117,-0.41992c0.45007,-0.27002 0.63892,-0.83008 0.45898,-1.32031l-0.62891,-1.69141c-0.17993,-0.5 -0.69092,-0.79883 -1.21094,-0.70898l-0.82031,0.13086c-0.42004,-0.6001 -0.9198,-1.15137 -1.50977,-1.62109l0.18945,-0.78906c0.11987,-0.52002 -0.12915,-1.05127 -0.61914,-1.27148l-1.62109,-0.75c-0.47998,-0.22021 -1.04907,-0.06836 -1.36914,0.36133l-0.49023,0.66992c-0.72998,-0.12988 -1.48877,-0.15967 -2.21875,-0.08008l-0.42187,-0.69141c-0.20242,-0.33728 -0.56648,-0.5267 -0.94336,-0.52539zM22.04492,13.87305c1.56611,0.07079 3.01624,1.05713 3.59375,2.61719c0.77002,2.08984 -0.29077,4.3999 -2.38086,5.16992c-2.07996,0.77002 -4.39001,-0.28906 -5.16992,-2.36914c-0.77002,-2.08984 0.3009,-4.3999 2.38086,-5.16992c0.52002,-0.1925 1.05413,-0.27164 1.57617,-0.24805zM37.72266,19.97266c-0.25358,0.03715 -0.48648,0.20215 -0.58398,0.45703l-0.2207,0.50977c-0.52002,0.03027 -1.02026,0.13086 -1.49023,0.29102l-0.37891,-0.40039c-0.26001,-0.26025 -0.65125,-0.2998 -0.95117,-0.10937l-1.0293,0.67969c-0.31006,0.2002 -0.43103,0.58008 -0.29102,0.91992l0.21094,0.50977c-0.33997,0.37012 -0.61963,0.79004 -0.84961,1.25l-0.55078,-0.00977c-0.3501,0 -0.67029,0.24951 -0.74023,0.59961l-0.25977,1.19922c-0.07007,0.3501 0.10938,0.70117 0.43945,0.85156l0.53125,0.21875c0.01001,0.5 0.11926,1.01025 0.2793,1.49023l-0.40039,0.38086c-0.25,0.25977 -0.29968,0.64893 -0.09961,0.94922l0.66992,1.03125c0.19995,0.30029 0.57996,0.41943 0.91992,0.2793l0.51953,-0.21094c0.37012,0.34033 0.79028,0.63184 1.24023,0.85156v0.55859c-0.00989,0.35986 0.25147,0.66992 0.60156,0.74023l1.18945,0.25c0.3501,0.08008 0.70947,-0.09912 0.84961,-0.43945l0.2207,-0.50977c0.51001,-0.03027 1.01025,-0.13086 1.49023,-0.30078l0.37891,0.40039c0.25,0.25977 0.64929,0.29932 0.94922,0.10938l1.03125,-0.66992c0.30994,-0.2002 0.41919,-0.58008 0.28906,-0.91992l-0.21875,-0.51953c0.34009,-0.37012 0.6294,-0.78027 0.85938,-1.25l0.55078,0.00977c0.35999,0 0.68005,-0.24951 0.75,-0.59961l0.23828,-1.19141c0.07996,-0.3501 -0.09949,-0.70947 -0.43945,-0.85937l-0.51953,-0.21875c-0.02002,-0.51025 -0.11926,-1.01025 -0.2793,-1.48047l0.38867,-0.38086c0.26001,-0.25 0.3114,-0.64941 0.11133,-0.94922l-0.66992,-1.03125c-0.19995,-0.31006 -0.59021,-0.4292 -0.91016,-0.28906l-0.52148,0.20898c-0.38,-0.32959 -0.78979,-0.61914 -1.25977,-0.85937l0.00977,-0.53906c0.01001,-0.35986 -0.23975,-0.66992 -0.58984,-0.75l-1.20898,-0.25c-0.08499,-0.01746 -0.17133,-0.0202 -0.25586,-0.00781zM37.27344,24.15234c0.79161,0.01318 1.5629,0.4046 2.02539,1.11719c0.75,1.14014 0.42896,2.66992 -0.71094,3.41992c-1.15015,0.74023 -2.67993,0.4209 -3.41992,-0.71875c-0.75,-1.14014 -0.42932,-2.66992 0.7207,-3.41992c0.42751,-0.27759 0.9098,-0.40635 1.38477,-0.39844zM56.56641,30.57227c0.08376,0.02002 0.15619,0.07324 0.20117,0.1582l1.23047,2.12891c0.18005,0.31006 0.50915,0.5 0.86914,0.5h2.4707c0.18994,0 0.32031,0.13037 0.32031,0.33008v2.4707c0,0.35986 0.20007,0.68945 0.5,0.85938l2.14063,1.24023c0.15991,0.08984 0.21851,0.29004 0.14844,0.41992l-1.25977,2.15039c-0.17993,0.31006 -0.17993,0.69922 0,1.00977l1.24023,2.15039c0.00989,0.00977 0.00952,0.01953 0.01953,0.0293c0.06006,0.1499 0.00146,0.32031 -0.14844,0.41016l-2.13086,1.23047c-0.30994,0.18018 -0.50977,0.50928 -0.50977,0.86914v2.4707c0,0.17619 -0.12561,0.33008 -0.32031,0.33008h-2.4707c-0.35999,0 -0.68909,0.18994 -0.86914,0.5l-1.23047,2.12891c-0.0909,0.17016 -0.3023,0.20451 -0.42969,0.14063l-2.15039,-1.25c-0.25064,-0.15636 -0.6942,-0.19019 -1,0c-0.10016,0.0579 -2.24524,1.29925 -2.10937,1.2207c-0.18005,0.1001 -0.39062,0.05029 -0.48047,-0.09961l-1.23047,-2.14062c-0.18005,-0.31006 -0.50903,-0.5 -0.86914,-0.5h-2.4707c-0.10999,0 -0.20972,-0.06055 -0.25977,-0.15039c-0.05005,-0.05029 -0.07031,-0.10986 -0.07031,-0.17969v-2.4707c0,-0.35986 -0.18994,-0.68897 -0.5,-0.86914l-2.11914,-1.2207c-0.17004,-0.09961 -0.23035,-0.29932 -0.15039,-0.43945l1.25,-2.16016c0.18005,-0.31055 0.18005,-0.69043 0,-1l-1.23047,-2.11914c-0.09985,-0.18018 -0.04895,-0.37109 0.12109,-0.46094l2.12891,-1.24023c0.31006,-0.16992 0.5,-0.49951 0.5,-0.85937v-2.4707c0,-0.17969 0.15015,-0.33008 0.33008,-0.33008h2.4707c0.36011,0 0.68909,-0.18994 0.86914,-0.5l1.21094,-2.11914c0.09998,-0.17041 0.3092,-0.2207 0.44922,-0.15039l2.16016,1.25c0.33294,0.18677 0.66935,0.18577 1,0c0.10092,-0.05885 2.24824,-1.3103 2.11133,-1.23047c0.08997,-0.04492 0.18382,-0.05713 0.26758,-0.03711zM53.67773,34.33008c-3.79202,0 -7.00977,3.08179 -7.00977,7.00977c0,3.87667 3.16008,7.01953 7.00977,7.01953h0.00977c3.848,0 7.02148,-3.13771 7.02148,-7.01953c0,-3.87268 -3.16483,-7.00977 -7.02148,-7.00977zM53.67773,38.17969h0.00977c0.11011,0.00977 0.18066,0.05078 0.2207,0.14062c0.04919,0.10005 0.94785,1.92497 0.89063,1.80859l1.97852,0.29102c0.09998,0.01025 0.17114,0.07031 0.20117,0.16016c0.03003,0.1001 0.0094,0.18945 -0.06055,0.25977l-1.43945,1.40039l0.34961,1.98047c0.02002,0.08984 -0.01953,0.18848 -0.09961,0.23828c-0.04935,0.04935 -0.15476,0.07399 -0.25977,0.02148c-0.10053,-0.05309 -1.8948,-1.00137 -1.78125,-0.94141l-0.00977,0.01172l-1.7793,0.92969c-0.08997,0.0498 -0.18982,0.03857 -0.25977,-0.02148c-0.07996,-0.0498 -0.11963,-0.14844 -0.09961,-0.23828l0.34961,-1.98047l-1.44141,-1.40039c-0.06995,-0.07031 -0.08826,-0.15967 -0.06836,-0.25977c0.03003,-0.08984 0.10889,-0.1499 0.20898,-0.16016l1.98047,-0.29102c0.09812,-0.19843 0.95512,-1.92905 0.90039,-1.81836c0.04004,-0.08008 0.11902,-0.13086 0.20898,-0.13086zM9.57813,39.26953c-0.55005,0 -1,0.4502 -1,1c0,0.5498 0.44995,1 1,1h24.11914c0.56006,0 1,-0.4502 1,-1c0,-0.5498 -0.43994,-1 -1,-1zM9.57813,45.73047c-0.55005,0 -1,0.4502 -1,1c0,0.5498 0.44995,1 1,1h24.11914c0.56006,0 1,-0.4502 1,-1c0,-0.5498 -0.43994,-1 -1,-1zM9.57813,52.18945c-0.55005,0 -1,0.4502 -1,1c0,0.55029 0.44995,1 1,1h24.11914c0.56006,0 1,-0.44971 1,-1c0,-0.5498 -0.43994,-1 -1,-1zM9.57813,58.65039c-0.55005,0 -1,0.4502 -1,1c0,0.55029 0.44995,1 1,1h11.34961c0.55994,0 1,-0.44971 1,-1c0,-0.5498 -0.44006,-1 -1,-1z"></path></g></g></svg>