<svg classname="aboutSvg"  xmlns="http://www.w3.org/2000/svg" xmlns:xlink="http://www.w3.org/1999/xlink" viewBox="0,0,256,256" width="50px" height="50px"><g  fill-rule="nonzero" stroke="none" stroke-width="1" stroke-linecap="butt" stroke-linejoin="miter" stroke-miterlimit="10" stroke-dasharray="" stroke-dashoffset="0" font-family="none" font-weight="none" font-size="none" text-anchor="none" style="mix-blend-mode: normal"><g transform="scale(5.12,5.12)"><path d="M23,0c-7.22656,0 -12.55469,2.49609 -16,6.40625c-3.44531,3.91016 -5,9.15234 -5,14.59375c0,4.40625 1.375,8.51563 3.6875,11.875c2.09375,3.04688 3.3125,6.63281 3.3125,10.3125v6.8125h2v-6.8125c0,-4.08594 -1.35937,-8.04297 -3.625,-11.375l-0.0625,-0.09375c-2.08984,-3.03906 -3.3125,-6.72656 -3.3125,-10.71875c0,-5.05859 1.44531,-9.81641 4.5,-13.28125c2.57813,-2.92578 6.32031,-4.99219 11.5,-5.5625v15.4375c-2.91797,1.19531 -5,4.06641 -5,7.40625c0,4.40625 3.59375,8 8,8c1.89844,0 3.65625,-0.67187 5.03125,-1.78125l5.21875,3.625c-0.15234,0.35938 -0.25,0.74609 -0.25,1.15625c0,1.64453 1.35547,3 3,3c1.64453,0 3,-1.35547 3,-3c0,-1.64453 -1.35547,-3 -3,-3c-0.50781,0 -0.98437,0.14844 -1.40625,0.375l-5.1875,-3.59375c0.99609,-1.33594 1.59375,-2.99609 1.59375,-4.78125c0,-3.33984 -2.08203,-6.21094 -5,-7.40625v-15.4375c5.125,0.50391 8.67188,2.29297 11.125,4.84375c2.91016,3.02734 4.33984,7.20703 4.875,11.71875l0.03125,0.21875l0.09375,0.15625l4.71875,8.09375h-0.03125c0.25,0.44922 0.125,0.88281 -0.3125,1.125v0.03125l-4.5,2.25v6c0,3.74219 -3.08594,6.66016 -6.8125,6.3125h-0.03125l-3.09375,-0.21875l-1.0625,-0.0625v7.375h2v-5.25l2,0.15625c0.01172,0 0.01953,0 0.03125,0c4.85938,0.43359 8.96875,-3.46484 8.96875,-8.3125v-4.78125l3.4375,-1.71875h0.03125l0.03125,-0.03125c1.36328,-0.75781 1.8125,-2.49219 1.0625,-3.84375v-0.03125l-4.625,-8c-0.59375,-4.68359 -2.12891,-9.18359 -5.375,-12.5625c-3.31641,-3.44922 -8.36328,-5.625 -15.5625,-5.625zM23,2c0.34766,0 0.66406,0.01953 1,0.03125v15.03125c-0.33203,-0.04297 -0.66016,-0.0625 -1,-0.0625c-0.33984,0 -0.66797,0.01953 -1,0.0625v-15.03125c0.32813,-0.01172 0.66016,-0.03125 1,-0.03125zM23,19c3.32422,0 6,2.67578 6,6c0,3.32422 -2.67578,6 -6,6c-3.32422,0 -6,-2.67578 -6,-6c0,-3.32422 2.67578,-6 6,-6zM23,21c-2.19922,0 -4,1.80078 -4,4c0,2.19922 1.80078,4 4,4c2.19922,0 4,-1.80078 4,-4c0,-2.19922 -1.80078,-4 -4,-4zM23,23c1.11719,0 2,0.88281 2,2c0,1.11719 -0.88281,2 -2,2c-1.11719,0 -2,-0.88281 -2,-2c0,-1.11719 0.88281,-2 2,-2zM36,35c0.5625,0 1,0.4375 1,1c0,0.5625 -0.4375,1 -1,1c-0.5625,0 -1,-0.4375 -1,-1c0,-0.5625 0.4375,-1 1,-1z"></path></g></g></svg>