<svg classname="aboutSvg"  xmlns="http://www.w3.org/2000/svg" xmlns:xlink="http://www.w3.org/1999/xlink" viewBox="0,0,256,256" width="50px" height="50px"><g  fill-rule="nonzero" stroke="none" stroke-width="1" stroke-linecap="butt" stroke-linejoin="miter" stroke-miterlimit="10" stroke-dasharray="" stroke-dashoffset="0" font-family="none" font-weight="none" font-size="none" text-anchor="none" style="mix-blend-mode: normal"><g transform="scale(5.12,5.12)"><path d="M25.63672,4c-2.28206,0 -4.0224,0.79285 -4.92187,2.20703c-0.81012,1.2737 -0.82274,2.87551 -0.44727,4.51953c-0.19132,0.33475 -0.31017,0.72691 -0.25586,1.21875c0.06314,0.56952 0.20331,1.0226 0.46875,1.39063c0.09774,0.13552 0.2729,0.14295 0.4043,0.24219c0.13507,0.53197 0.27648,1.08205 0.54102,1.43945c0.18575,0.25096 0.37488,0.46187 0.55078,0.63281c0.0076,0.0074 0.01604,0.01039 0.02344,0.01758v0.99219c-0.0672,0.15101 -0.17701,0.29124 -0.52539,0.48828c-0.38463,0.21754 -0.95975,0.43992 -1.58398,0.74414c-0.62424,0.30422 -1.31279,0.70211 -1.875,1.35938c-0.56221,0.65727 -0.95171,1.57328 -1.01367,2.69336c-0.01499,0.27421 0.08344,0.54252 0.27219,0.74199c0.18876,0.19947 0.45123,0.31254 0.72585,0.3127h14c0.27462,-0.00015 0.5371,-0.11323 0.72585,-0.3127c0.18876,-0.19947 0.28718,-0.46778 0.27219,-0.74199c-0.06196,-1.12007 -0.4515,-2.03603 -1.01367,-2.69336c-0.56218,-0.65733 -1.25074,-1.05507 -1.875,-1.35937c-0.62426,-0.3043 -1.19929,-0.52855 -1.58398,-0.74609c-0.34838,-0.19701 -0.45824,-0.3356 -0.52539,-0.48633v-1.00391c0.0097,-0.0098 0.02117,-0.01525 0.03125,-0.02539c0.17299,-0.17406 0.35982,-0.38649 0.54102,-0.63672c0.25598,-0.3535 0.3913,-0.88568 0.52539,-1.40039c0.13179,-0.0993 0.30634,-0.10637 0.4043,-0.24219c0.26581,-0.36854 0.40817,-0.82097 0.4707,-1.39062c0.04208,-0.38106 0.0069,-0.73749 -0.125,-1.06836c-0.01771,-0.04442 -0.09567,-0.06836 -0.11719,-0.11328c0.27911,-1.14488 0.37004,-2.36583 -0.07227,-3.48633c-0.42218,-1.06951 -1.51373,-1.80314 -2.87695,-2.06836l-0.20508,-0.56641c-0.1437,-0.39503 -0.51909,-0.65804 -0.93945,-0.6582zM24.97656,6.11133l0.08398,0.23047c0.1437,0.39503 0.51909,0.65804 0.93945,0.6582c1.19311,0 1.53871,0.37334 1.79688,1.02734c0.25816,0.654 0.23012,1.71875 -0.06641,2.67773c-0.10978,0.35735 -0.01108,0.7461 0.25586,1.00781c0.00039,0.0191 0.00125,0.00036 -0.00195,0.0293c-0.03098,0.28224 -0.0743,0.33841 -0.08594,0.36328c-0.354,0.16289 -0.58114,0.51657 -0.58203,0.90625c0,0.12151 -0.13642,0.49725 -0.36328,0.81055c-0.11343,0.15665 -0.23993,0.29985 -0.33984,0.40039c-0.09992,0.10054 -0.22696,0.17644 -0.10937,0.10938c-0.31125,0.17786 -0.5035,0.5087 -0.50391,0.86719v1.73438c0.00022,0.11035 0.0187,0.2199 0.05469,0.32422c0.27407,0.80076 0.90167,1.30134 1.48437,1.63086c0.58271,0.32952 1.17649,0.54883 1.69336,0.80078c0.51686,0.25195 0.94144,0.52305 1.23242,0.86328c0.08666,0.10133 0.09089,0.3262 0.16016,0.44727h-11.25c0.06925,-0.12104 0.0735,-0.34596 0.16016,-0.44727c0.29095,-0.34014 0.71554,-0.60942 1.23242,-0.86133c0.51689,-0.2519 1.11058,-0.47312 1.69336,-0.80273c0.58278,-0.32961 1.21039,-0.82995 1.48437,-1.63086c0.03599,-0.10432 0.05447,-0.21387 0.05469,-0.32422v-1.73437c-0.00051,-0.35999 -0.19445,-0.69194 -0.50781,-0.86914c0.10054,0.05678 -0.02081,-0.01582 -0.12109,-0.11328c-0.10029,-0.09746 -0.22489,-0.236 -0.33789,-0.38867c-0.226,-0.30534 -0.36719,-0.66713 -0.36719,-0.83203c-0.00053,-0.38923 -0.22684,-0.74278 -0.58008,-0.90625c-0.01187,-0.02522 -0.05658,-0.08087 -0.08789,-0.36328c-0.00429,-0.03884 0.00391,-0.02619 0.00977,-0.03906c0.254,-0.25705 0.34957,-0.63113 0.25,-0.97852c-0.42811,-1.49388 -0.33,-2.68166 0.14453,-3.42773c0.40116,-0.63072 1.24426,-1.03667 2.57422,-1.16992zM8,13c-0.55226,0.00006 -0.99994,0.44774 -1,1v10c-0.0051,0.36064 0.18438,0.69608 0.49587,0.87789c0.3115,0.18181 0.69676,0.18181 1.00825,0c0.3115,-0.18181 0.50097,-0.51725 0.49587,-0.87789v-9h8c0.36064,0.0051 0.69608,-0.18438 0.87789,-0.49587c0.18181,-0.3115 0.18181,-0.69676 0,-1.00825c-0.18181,-0.3115 -0.51725,-0.50097 -0.87789,-0.49587zM33,13c-0.36064,-0.0051 -0.69608,0.18438 -0.87789,0.49587c-0.18181,0.3115 -0.18181,0.69676 0,1.00825c0.18181,0.3115 0.51725,0.50097 0.87789,0.49587h8v9c-0.0051,0.36064 0.18438,0.69608 0.49587,0.87789c0.3115,0.18181 0.69676,0.18181 1.00825,0c0.3115,-0.18181 0.50097,-0.51725 0.49587,-0.87789v-10c-0.00006,-0.55226 -0.44774,-0.99994 -1,-1zM8.63672,27c-2.28206,0 -4.0224,0.79285 -4.92187,2.20703c-0.81012,1.2737 -0.82274,2.87551 -0.44727,4.51953c-0.19132,0.33475 -0.31017,0.72691 -0.25586,1.21875c0.06314,0.56952 0.20331,1.0226 0.46875,1.39063c0.09774,0.13552 0.2729,0.14295 0.4043,0.24219c0.13507,0.53197 0.27648,1.08205 0.54102,1.43945c0.18575,0.25096 0.37488,0.46187 0.55078,0.63281c0.00761,0.0074 0.01604,0.01039 0.02344,0.01758v0.99219c-0.0672,0.15101 -0.17701,0.29124 -0.52539,0.48828c-0.38463,0.21754 -0.95975,0.43992 -1.58398,0.74414c-0.62424,0.30422 -1.31279,0.70211 -1.875,1.35938c-0.56221,0.65727 -0.95171,1.57328 -1.01367,2.69336c-0.01499,0.27421 0.08344,0.54252 0.27219,0.74199c0.18876,0.19947 0.45123,0.31254 0.72585,0.3127h14c0.27462,-0.00015 0.5371,-0.11323 0.72585,-0.3127c0.18876,-0.19947 0.28718,-0.46778 0.27219,-0.74199c-0.06196,-1.12007 -0.4515,-2.03603 -1.01367,-2.69336c-0.56218,-0.65733 -1.25074,-1.05508 -1.875,-1.35937c-0.62426,-0.3043 -1.19929,-0.52855 -1.58398,-0.74609c-0.34838,-0.19701 -0.45824,-0.3356 -0.52539,-0.48633v-1.00391c0.0097,-0.0098 0.02117,-0.01525 0.03125,-0.02539c0.17299,-0.17406 0.35982,-0.38649 0.54102,-0.63672c0.25598,-0.3535 0.3913,-0.88568 0.52539,-1.40039c0.13179,-0.0993 0.30634,-0.10637 0.4043,-0.24219c0.26581,-0.36854 0.40817,-0.82097 0.4707,-1.39062c0.04208,-0.38106 0.0069,-0.73749 -0.125,-1.06836c-0.01771,-0.04442 -0.09567,-0.06836 -0.11719,-0.11328c0.27911,-1.14488 0.37005,-2.36584 -0.07227,-3.48633c-0.42218,-1.0695 -1.51373,-1.80314 -2.87695,-2.06836l-0.20508,-0.56641c-0.1437,-0.39503 -0.51909,-0.65804 -0.93945,-0.6582zM25.63672,27c-2.28206,0 -4.0224,0.79285 -4.92187,2.20703c-0.81012,1.2737 -0.82274,2.87551 -0.44727,4.51953c-0.19132,0.33475 -0.31017,0.72691 -0.25586,1.21875c0.06314,0.56952 0.20331,1.0226 0.46875,1.39063c0.09774,0.13552 0.2729,0.14295 0.4043,0.24219c0.13507,0.53197 0.27648,1.08205 0.54102,1.43945c0.18575,0.25096 0.37488,0.46187 0.55078,0.63281c0.0076,0.0074 0.01604,0.01039 0.02344,0.01758v0.99219c-0.0672,0.15101 -0.17701,0.29124 -0.52539,0.48828c-0.38463,0.21754 -0.95975,0.43992 -1.58398,0.74414c-0.62424,0.30422 -1.31279,0.70211 -1.875,1.35938c-0.56221,0.65727 -0.95171,1.57328 -1.01367,2.69336c-0.01499,0.27421 0.08344,0.54252 0.27219,0.74199c0.18876,0.19947 0.45123,0.31254 0.72585,0.3127h14c0.27462,-0.00015 0.5371,-0.11323 0.72585,-0.3127c0.18876,-0.19947 0.28718,-0.46778 0.27219,-0.74199c-0.06196,-1.12007 -0.4515,-2.03603 -1.01367,-2.69336c-0.56218,-0.65733 -1.25074,-1.05508 -1.875,-1.35937c-0.62426,-0.3043 -1.19929,-0.52855 -1.58398,-0.74609c-0.34838,-0.19701 -0.45824,-0.3356 -0.52539,-0.48633v-1.00391c0.0097,-0.0098 0.02117,-0.01525 0.03125,-0.02539c0.17299,-0.17406 0.35982,-0.38649 0.54102,-0.63672c0.25598,-0.3535 0.3913,-0.88568 0.52539,-1.40039c0.13179,-0.0993 0.30634,-0.10637 0.4043,-0.24219c0.26581,-0.36854 0.40817,-0.82097 0.4707,-1.39062c0.04208,-0.38106 0.0069,-0.73749 -0.125,-1.06836c-0.01771,-0.04442 -0.09567,-0.06836 -0.11719,-0.11328c0.27911,-1.14488 0.37005,-2.36584 -0.07227,-3.48633c-0.42218,-1.0695 -1.51373,-1.80314 -2.87695,-2.06836l-0.20508,-0.56641c-0.1437,-0.39503 -0.51909,-0.65804 -0.93945,-0.6582zM42.63672,27c-2.28206,0 -4.0224,0.79285 -4.92187,2.20703c-0.81012,1.2737 -0.82274,2.87551 -0.44727,4.51953c-0.19132,0.33475 -0.31017,0.72691 -0.25586,1.21875c0.06314,0.56952 0.20331,1.0226 0.46875,1.39063c0.09774,0.13552 0.2729,0.14295 0.4043,0.24219c0.13507,0.53197 0.27648,1.08205 0.54102,1.43945c0.18575,0.25096 0.37488,0.46187 0.55078,0.63281c0.0076,0.0074 0.01604,0.01039 0.02344,0.01758v0.99219c-0.0672,0.15101 -0.17701,0.29124 -0.52539,0.48828c-0.38463,0.21754 -0.95974,0.43992 -1.58398,0.74414c-0.62424,0.30422 -1.31279,0.70211 -1.875,1.35938c-0.56221,0.65727 -0.95171,1.57328 -1.01367,2.69336c-0.01499,0.27421 0.08344,0.54252 0.27219,0.74199c0.18876,0.19947 0.45123,0.31254 0.72585,0.3127h14c0.27462,-0.00015 0.5371,-0.11323 0.72585,-0.3127c0.18876,-0.19947 0.28718,-0.46778 0.27219,-0.74199c-0.06196,-1.12007 -0.4515,-2.03603 -1.01367,-2.69336c-0.56218,-0.65733 -1.25074,-1.05508 -1.875,-1.35937c-0.62426,-0.3043 -1.19929,-0.52855 -1.58398,-0.74609c-0.34838,-0.19701 -0.45824,-0.3356 -0.52539,-0.48633v-1.00391c0.0097,-0.0098 0.02117,-0.01525 0.03125,-0.02539c0.17299,-0.17406 0.35982,-0.38649 0.54102,-0.63672c0.25598,-0.3535 0.3913,-0.88568 0.52539,-1.40039c0.13179,-0.0993 0.30634,-0.10637 0.4043,-0.24219c0.26581,-0.36854 0.40817,-0.82097 0.4707,-1.39062c0.04208,-0.38106 0.0069,-0.73749 -0.125,-1.06836c-0.01771,-0.04442 -0.09567,-0.06836 -0.11719,-0.11328c0.27911,-1.14488 0.37005,-2.36584 -0.07227,-3.48633c-0.42218,-1.0695 -1.51373,-1.80314 -2.87695,-2.06836l-0.20508,-0.56641c-0.1437,-0.39503 -0.51909,-0.65804 -0.93945,-0.6582zM7.97656,29.11133l0.08398,0.23047c0.1437,0.39503 0.51909,0.65804 0.93945,0.6582c1.19311,0 1.53871,0.37334 1.79688,1.02734c0.25816,0.654 0.23012,1.71875 -0.06641,2.67773c-0.10978,0.35735 -0.01108,0.7461 0.25586,1.00781c0.00039,0.0191 0.00125,0.00036 -0.00195,0.0293c-0.03098,0.28224 -0.0743,0.33841 -0.08594,0.36328c-0.354,0.16289 -0.58114,0.51657 -0.58203,0.90625c0,0.12151 -0.13642,0.49725 -0.36328,0.81055c-0.11343,0.15665 -0.23993,0.29985 -0.33984,0.40039c-0.09992,0.10054 -0.22696,0.17645 -0.10937,0.10938c-0.31125,0.17786 -0.5035,0.5087 -0.50391,0.86719v1.73438c0.00022,0.11035 0.0187,0.2199 0.05469,0.32422c0.27407,0.80076 0.90167,1.30134 1.48437,1.63086c0.58271,0.32952 1.1765,0.54883 1.69336,0.80078c0.51687,0.25195 0.94144,0.52305 1.23242,0.86328c0.08666,0.10133 0.0909,0.3262 0.16016,0.44727h-11.25c0.06925,-0.12104 0.0735,-0.34596 0.16016,-0.44727c0.29095,-0.34014 0.71554,-0.60942 1.23242,-0.86133c0.51689,-0.2519 1.11058,-0.47312 1.69336,-0.80273c0.58278,-0.32961 1.21039,-0.82995 1.48438,-1.63086c0.03599,-0.10432 0.05447,-0.21387 0.05469,-0.32422v-1.73437c-0.00051,-0.35999 -0.19445,-0.69194 -0.50781,-0.86914c0.10054,0.05678 -0.02081,-0.01582 -0.12109,-0.11328c-0.10029,-0.09746 -0.22489,-0.236 -0.33789,-0.38867c-0.226,-0.30534 -0.36719,-0.66713 -0.36719,-0.83203c-0.00053,-0.38923 -0.22684,-0.74278 -0.58008,-0.90625c-0.01187,-0.02522 -0.05658,-0.08087 -0.08789,-0.36328c-0.00429,-0.03884 0.00391,-0.02619 0.00977,-0.03906c0.254,-0.25705 0.34957,-0.63113 0.25,-0.97852c-0.42811,-1.49388 -0.33,-2.68166 0.14453,-3.42773c0.40116,-0.63072 1.24426,-1.03667 2.57422,-1.16992zM24.97656,29.11133l0.08398,0.23047c0.1437,0.39503 0.51909,0.65804 0.93945,0.6582c1.19311,0 1.53871,0.37334 1.79688,1.02734c0.25816,0.654 0.23012,1.71875 -0.06641,2.67773c-0.10978,0.35735 -0.01108,0.7461 0.25586,1.00781c0.00039,0.0191 0.00125,0.00036 -0.00195,0.0293c-0.03098,0.28224 -0.0743,0.33841 -0.08594,0.36328c-0.354,0.16289 -0.58114,0.51657 -0.58203,0.90625c0,0.12151 -0.13642,0.49725 -0.36328,0.81055c-0.11343,0.15665 -0.23993,0.29985 -0.33984,0.40039c-0.09992,0.10054 -0.22696,0.17645 -0.10937,0.10938c-0.31125,0.17786 -0.5035,0.5087 -0.50391,0.86719v1.73438c0.00022,0.11035 0.0187,0.2199 0.05469,0.32422c0.27407,0.80076 0.90167,1.30134 1.48437,1.63086c0.58271,0.32952 1.17649,0.54883 1.69336,0.80078c0.51686,0.25195 0.94144,0.52305 1.23242,0.86328c0.08666,0.10133 0.09089,0.3262 0.16016,0.44727h-11.25c0.06925,-0.12104 0.0735,-0.34596 0.16016,-0.44727c0.29095,-0.34014 0.71554,-0.60942 1.23242,-0.86133c0.51689,-0.2519 1.11058,-0.47312 1.69336,-0.80273c0.58278,-0.32961 1.21039,-0.82995 1.48437,-1.63086c0.03599,-0.10432 0.05447,-0.21387 0.05469,-0.32422v-1.73437c-0.00051,-0.35999 -0.19445,-0.69194 -0.50781,-0.86914c0.10054,0.05678 -0.02081,-0.01582 -0.12109,-0.11328c-0.10029,-0.09746 -0.22489,-0.236 -0.33789,-0.38867c-0.226,-0.30534 -0.36719,-0.66713 -0.36719,-0.83203c-0.00053,-0.38923 -0.22684,-0.74278 -0.58008,-0.90625c-0.01187,-0.02522 -0.05658,-0.08087 -0.08789,-0.36328c-0.00429,-0.03884 0.00391,-0.02619 0.00977,-0.03906c0.254,-0.25705 0.34957,-0.63113 0.25,-0.97852c-0.4281,-1.49388 -0.33,-2.68166 0.14453,-3.42773c0.40116,-0.63072 1.24427,-1.03667 2.57422,-1.16992zM41.97656,29.11133l0.08398,0.23047c0.1437,0.39503 0.51909,0.65804 0.93945,0.6582c1.19311,0 1.53871,0.37334 1.79688,1.02734c0.25816,0.654 0.23012,1.71875 -0.06641,2.67773c-0.10978,0.35735 -0.01108,0.7461 0.25586,1.00781c0.00039,0.0191 0.00125,0.00036 -0.00195,0.0293c-0.03098,0.28224 -0.0743,0.33841 -0.08594,0.36328c-0.354,0.16289 -0.58114,0.51657 -0.58203,0.90625c0,0.12151 -0.13642,0.49725 -0.36328,0.81055c-0.11343,0.15665 -0.23993,0.29985 -0.33984,0.40039c-0.09992,0.10054 -0.22696,0.17645 -0.10937,0.10938c-0.31125,0.17786 -0.5035,0.5087 -0.50391,0.86719v1.73438c0.00022,0.11035 0.0187,0.2199 0.05469,0.32422c0.27407,0.80076 0.90167,1.30134 1.48437,1.63086c0.58271,0.32952 1.17649,0.54883 1.69336,0.80078c0.51687,0.25195 0.94144,0.52305 1.23242,0.86328c0.08666,0.10133 0.0909,0.3262 0.16016,0.44727h-11.25c0.06925,-0.12104 0.0735,-0.34596 0.16016,-0.44727c0.29095,-0.34014 0.71554,-0.60942 1.23242,-0.86133c0.51689,-0.2519 1.11058,-0.47312 1.69336,-0.80273c0.58277,-0.32961 1.21039,-0.82995 1.48437,-1.63086c0.03599,-0.10432 0.05447,-0.21387 0.05469,-0.32422v-1.73437c-0.00051,-0.35999 -0.19445,-0.69194 -0.50781,-0.86914c0.10054,0.05678 -0.02081,-0.01582 -0.12109,-0.11328c-0.10029,-0.09746 -0.22489,-0.236 -0.33789,-0.38867c-0.226,-0.30534 -0.36719,-0.66713 -0.36719,-0.83203c-0.00053,-0.38923 -0.22684,-0.74278 -0.58008,-0.90625c-0.01187,-0.02522 -0.05658,-0.08087 -0.08789,-0.36328c-0.00429,-0.03884 0.00391,-0.02619 0.00977,-0.03906c0.254,-0.25705 0.34957,-0.63113 0.25,-0.97852c-0.42811,-1.49388 -0.33,-2.68166 0.14453,-3.42773c0.40116,-0.63072 1.24426,-1.03667 2.57422,-1.16992z"></path></g></g></svg>